<?xml version="1.0" encoding="utf-8"?>
<!-- Generator: Adobe Illustrator 21.0.2, SVG Export Plug-In . SVG Version: 6.00 Build 0)  -->
<svg version="1.1" id="Layer_1" xmlns="http://www.w3.org/2000/svg" xmlns:xlink="http://www.w3.org/1999/xlink" x="0px" y="0px"
	 viewBox="0 0 523 190" style="enable-background:new 0 0 523 190;" xml:space="preserve">
<style type="text/css">
	.st0{fill:#4156A6;}
	.st1{fill-rule:evenodd;clip-rule:evenodd;fill:#4156A6;}
	.st2{fill:#1897D4;}
	.st3{fill:#ED3439;}
</style>
<g>
	<g>
		<g>
			<g>
				<path class="st0" d="M172.7,74.6v17.8c0,2.6-2.2,4.8-4.8,4.8c-2.4,0-4.2-1.7-4.7-3.9c-3.4,2.4-7.5,3.9-12.1,3.9
					c-6.2,0-11.5-2.5-15.4-6.6c-3.9-4.2-6.2-9.8-6.2-16c0-6.3,2.3-11.9,6.2-16c3.9-4.2,9.2-6.8,15.4-6.8c4.5,0,8.6,1.5,12.1,4
					c0.5-2.3,2.4-4,4.7-4c2.6,0,4.8,2.2,4.8,4.9V74.6z M163.1,74.6c0-3.8-1.4-7.1-3.5-9.3c-2.2-2.4-5.3-3.7-8.4-3.7
					c-3.3,0-6.3,1.3-8.4,3.7c-2.2,2.3-3.4,5.5-3.4,9.3c0,3.7,1.3,7,3.4,9.3c2.1,2.3,5.2,3.5,8.4,3.5c3.2,0,6.3-1.3,8.4-3.5
					C161.7,81.6,163.1,78.3,163.1,74.6z"/>
				<path class="st0" d="M184.3,109.3V74.7c0,0,0,0,0-0.1V56.6c0-2.6,2.2-4.8,4.8-4.8c2.5,0,4.6,1.7,5,3.7c3.4-2.2,7.7-3.7,12.3-3.7
					c12.1,0,21.9,10.3,21.9,22.8c0,12.4-9.9,22.5-21.9,22.5c-4.5,0-8.9-1.4-12.1-3.7v16c0,2.5-2.3,4.9-5.2,4.9
					C186.4,114.2,184.3,111.9,184.3,109.3z M194.2,74.6c0,3.5,1.2,7,3.5,9.1c2.3,2.5,5.3,3.8,8.6,3.8c3.1,0,6.2-1.3,8.5-3.8
					c2.1-2.1,3.5-5.5,3.5-9.1c0-3.5-1.4-6.8-3.5-9.2c-2.4-2.4-5.4-3.7-8.5-3.7c-3.4,0-6.3,1.3-8.6,3.7
					C195.4,67.8,194.2,71.1,194.2,74.6z"/>
				<path class="st0" d="M237.4,109.3V74.7c0,0,0,0,0-0.1V56.6c0-2.6,2.2-4.8,4.8-4.8c2.5,0,4.6,1.7,5,3.7c3.4-2.2,7.7-3.7,12.3-3.7
					c12.1,0,21.9,10.3,21.9,22.8c0,12.4-9.9,22.5-21.9,22.5c-4.5,0-8.9-1.4-12.1-3.7v16c0,2.5-2.3,4.9-5.2,4.9
					C239.5,114.2,237.4,111.9,237.4,109.3z M247.3,74.6c0,3.5,1.2,7,3.5,9.1c2.3,2.5,5.3,3.8,8.6,3.8c3.1,0,6.2-1.3,8.5-3.8
					c2.1-2.1,3.5-5.5,3.5-9.1c0-3.5-1.4-6.8-3.5-9.2c-2.4-2.4-5.4-3.7-8.5-3.7c-3.4,0-6.3,1.3-8.6,3.7
					C248.5,67.8,247.3,71.1,247.3,74.6z"/>
				<path class="st0" d="M285,108.2c0-2.6,2.1-4.8,5-4.8V56.8c0-2.8,2.3-5,4.9-5c2.8,0,4.9,2.2,4.9,5v46.6c0,5.3-4.4,9.8-9.8,9.8
					C287.1,113.2,285,111.1,285,108.2z M290.1,40.6v-0.8c0-2.9,2.3-5,5-5s4.9,2.1,4.9,5v0.8c0,2.6-2.2,5-4.9,5
					S290.1,43.2,290.1,40.6z"/>
				<path class="st0" d="M351.3,74.6v17.8c0,2.6-2.2,4.8-4.8,4.8c-2.4,0-4.2-1.7-4.7-3.9c-3.4,2.4-7.5,3.9-12.1,3.9
					c-6.2,0-11.5-2.5-15.4-6.6c-3.9-4.2-6.2-9.8-6.2-16c0-6.3,2.3-11.9,6.2-16c3.9-4.2,9.2-6.8,15.4-6.8c4.5,0,8.6,1.5,12.1,4
					c0.5-2.3,2.4-4,4.7-4c2.6,0,4.8,2.2,4.8,4.9V74.6z M341.7,74.6c0-3.8-1.4-7.1-3.5-9.3c-2.2-2.4-5.3-3.7-8.4-3.7
					c-3.3,0-6.3,1.3-8.4,3.7c-2.2,2.3-3.4,5.5-3.4,9.3c0,3.7,1.3,7,3.4,9.3c2.1,2.3,5.2,3.5,8.4,3.5c3.2,0,6.3-1.3,8.4-3.5
					C340.4,81.6,341.7,78.3,341.7,74.6z"/>
				<path class="st0" d="M400.3,70.6c0,0.1,0,0.2,0,0.3v21.5c0,2.6-2.2,4.8-4.8,4.8c-2.5,0-4.9-2.2-4.9-4.8V70.9c0-0.1,0-0.2,0-0.3
					c-0.1-5-4.3-9.1-9.3-9.1c-5,0-9.2,4.2-9.2,9.3v21.5c0,0.2-0.1,0.5-0.1,0.6c0,0.1,0,0.3,0,0.3c-0.1,0.2-0.1,0.4-0.3,0.5
					c0,0.1,0,0.3,0,0.5c-0.8,1.6-2.6,2.9-4.5,2.9c-0.4,0-0.6-0.1-0.9-0.1c-2.2-0.5-3.9-2.4-3.9-4.7V70.9c0-0.1,0-0.1,0-0.1V56.7
					c0-2.8,2.2-4.9,4.8-4.9c1.9,0,3.6,1,4.4,2.7c2.9-1.7,6.3-2.7,9.7-2.7c5.7,0,10.8,2.4,14.2,6.3c3.4-3.9,8.5-6.3,14.2-6.3
					c10.4,0,18.9,8.5,18.9,19v21.5c0,2.6-2.2,4.8-4.8,4.8c-2.6,0-4.9-2.2-4.9-4.8V70.9c0-5.2-4.2-9.3-9.2-9.3
					C404.5,61.5,400.5,65.6,400.3,70.6z"/>
			</g>
			<path class="st0" d="M457.4,79.5h-12.9c-2.7,0-5-2.2-5-5c0-2.7,2.3-5,5-5h12.9V56.9c0-2.9,2.3-5.2,5.2-5.2c2.8,0,5.2,2.3,5.2,5.2
				v12.6h12.9c2.7,0,5,2.3,5,5c0,2.8-2.3,5-5,5h-12.9v12.6c0,2.9-2.4,5.2-5.2,5.2c-2.9,0-5.2-2.3-5.2-5.2V79.5z"/>
		</g>
		<g>
			<path class="st1" d="M50.3,54.7c1.1,0.6,1,0.6,1.3,0.8c0.6,0.4,2.1,0.7,2.7-0.5c2.3-4.3,4.6-8.5,6.9-12.6c0.6-1.1,2.1-1.6,3.3-1
				c4.1,2,8.3,4.1,12.4,6.2c1.2,0.6,2.2-0.5,2.4-1.2c0.1-0.3,0-0.1,0.6-1.2c1.9-3.5,6.4-4.5,10.1-2.5c3.7,1.9,5.5,6.1,3.7,9.7
				c-0.5,1.1-0.4,0.9-0.6,1.2c-0.4,0.6-0.8,2,0.4,2.7c4.2,2.2,8.3,4.4,12.3,6.6c1.2,0.6,1.6,2.1,1.1,3.3c-2,4.2-4.1,8.5-6.3,12.9
				c-0.6,1.2,0.6,2.3,1.2,2.5c0.4,0.1,0.3,0,1.4,0.6c3.6,1.9,4.5,6.3,2.6,10.1c-1.9,3.8-6.2,5.6-9.9,3.9c-1.1-0.5-1-0.5-1.3-0.7
				c-0.6-0.4-2.2-0.7-2.8,0.5c-2.4,4.3-4.7,8.6-7,12.5c-0.6,1.1-2.1,1.5-3.3,0.9c-4-2.1-8-4.1-12.1-6.2c-1.2-0.6-0.8-2-0.5-2.5
				c0.2-0.3,0.2-0.2,0.8-1.3c1.8-3.4,0.2-8.2-3.7-10.3c-3.9-2-8.8-0.5-10.5,2.9c-0.5,1-0.4,1-0.6,1.4c-0.3,0.6-1.2,1.7-2.3,1.1
				c-4-2.1-8-4.2-12-6.3c-1.2-0.6-1.7-2.1-1.2-3.2c1.9-4.1,4-8.5,6.1-12.9c0.6-1.2-0.5-2.3-1.2-2.6c-0.3-0.2-0.3-0.1-1.3-0.7
				c-3.5-2.1-4.5-6.7-2.5-10.4C42.5,54.6,46.7,52.8,50.3,54.7z"/>
		</g>
	</g>
</g>
<g>
	<path d="M57.7,136.2c1.1,0.9,1.6,2.2,1.6,3.9c0,1.7-0.5,3.1-1.6,4c-1.1,0.9-2.6,1.4-4.5,1.4h-4.3v5.1h-1.6v-15.7h5.8
		C55.1,134.8,56.6,135.3,57.7,136.2z M56.5,143.1c0.8-0.7,1.2-1.7,1.2-3c0-1.3-0.4-2.2-1.2-2.9c-0.8-0.7-2-1-3.5-1h-4.2v7.9h4.2
		C54.6,144.1,55.7,143.8,56.5,143.1z"/>
	<path d="M73.4,135.8c1.3,0.7,2.2,1.7,3,2.9c0.7,1.2,1.1,2.6,1.1,4c0,1.5-0.4,2.8-1.1,4c-0.7,1.2-1.7,2.2-3,2.9
		c-1.3,0.7-2.6,1.1-4.1,1.1c-1.5,0-2.9-0.4-4.1-1.1c-1.3-0.7-2.2-1.7-3-2.9c-0.7-1.2-1.1-2.6-1.1-4c0-1.5,0.4-2.8,1.1-4
		c0.7-1.2,1.7-2.2,3-2.9c1.3-0.7,2.6-1.1,4.1-1.1C70.7,134.7,72.1,135.1,73.4,135.8z M65.9,137c-1,0.6-1.8,1.4-2.4,2.4
		c-0.6,1-0.9,2.1-0.9,3.3c0,1.2,0.3,2.3,0.9,3.3c0.6,1,1.4,1.8,2.4,2.4c1,0.6,2.1,0.9,3.3,0.9c1.2,0,2.3-0.3,3.3-0.9
		c1-0.6,1.8-1.4,2.4-2.4c0.6-1,0.9-2.1,0.9-3.3c0-1.2-0.3-2.3-0.9-3.3c-0.6-1-1.4-1.8-2.4-2.4c-1-0.6-2.1-0.9-3.3-0.9
		C68,136.1,66.9,136.4,65.9,137z"/>
	<path d="M99.6,134.8h1.6L96,150.6h-1.6l-4.4-13.8l-4.5,13.8h-1.6l-5.3-15.8h1.7l4.5,14.1l4.5-14.1h1.6l4.5,14.1L99.6,134.8z"/>
	<path d="M104.1,134.8h10.5v1.4h-9v5.6h8v1.4h-8v5.9h9.3v1.4h-10.8V134.8z"/>
	<path d="M129.3,150.6l-3.4-5.1c-0.5,0-0.8,0-1.1,0h-4.3v5.1h-1.6v-15.7h5.9c2,0,3.5,0.5,4.6,1.4c1.1,0.9,1.6,2.2,1.6,3.9
		c0,1.3-0.3,2.4-0.9,3.3c-0.6,0.9-1.5,1.5-2.7,1.8l3.8,5.4H129.3z M124.8,144.1c1.5,0,2.7-0.3,3.5-1c0.8-0.7,1.2-1.7,1.2-3
		c0-1.3-0.4-2.2-1.2-2.9s-2-1-3.5-1h-4.3v7.9H124.8z"/>
	<path d="M135.3,134.8h10.5v1.4h-9v5.6h8v1.4h-8v5.9h9.3v1.4h-10.8V134.8z"/>
	<path d="M160.6,135.9c1.2,0.7,2.2,1.6,2.9,2.8s1.1,2.5,1.1,4c0,1.5-0.4,2.8-1.1,4c-0.7,1.2-1.7,2.1-2.9,2.8c-1.2,0.7-2.6,1-4.1,1
		h-6.3v-15.7h6.3C158,134.8,159.3,135.2,160.6,135.9z M159.8,148.3c1-0.6,1.8-1.3,2.4-2.3s0.9-2.1,0.9-3.3c0-1.2-0.3-2.3-0.9-3.3
		c-0.6-1-1.4-1.8-2.4-2.3c-1-0.6-2.1-0.9-3.3-0.9h-4.7v12.9h4.8C157.7,149.2,158.8,148.9,159.8,148.3z"/>
	<path d="M184.8,135.9c0.9,0.7,1.3,1.7,1.3,2.9c0,0.9-0.3,1.7-0.8,2.3c-0.5,0.6-1.2,1-2.2,1.2c1.2,0.1,2.1,0.6,2.7,1.3
		c0.6,0.7,1,1.6,1,2.7c0,1.4-0.5,2.4-1.5,3.1s-2.4,1.1-4.2,1.1h-6.7v-15.8h6.6C182.7,134.8,183.9,135.2,184.8,135.9z M183.6,141
		c0.6-0.5,0.9-1.2,0.9-2.1c0-0.9-0.3-1.5-0.9-2c-0.6-0.5-1.5-0.7-2.6-0.7h-5v5.5h5C182.2,141.8,183,141.5,183.6,141z M184.2,148.4
		c0.7-0.5,1.1-1.3,1.1-2.2c0-0.9-0.4-1.7-1.1-2.2c-0.8-0.5-1.8-0.8-3.1-0.8h-5v6h5C182.4,149.2,183.4,148.9,184.2,148.4z"/>
	<path d="M202.3,134.8l-6.1,10.1v5.6h-1.6V145l-6.1-10.1h1.6l5.3,8.5l5.2-8.5H202.3z"/>
	<path class="st2" d="M221.9,135.9c1.2,0.7,2.2,1.6,2.9,2.8s1.1,2.5,1.1,4c0,1.5-0.4,2.8-1.1,4c-0.7,1.2-1.7,2.1-2.9,2.8
		c-1.2,0.7-2.6,1-4.1,1h-6.3v-15.7h6.3C219.2,134.8,220.6,135.2,221.9,135.9z M221.1,148.3c1-0.6,1.8-1.3,2.4-2.3s0.9-2.1,0.9-3.3
		c0-1.2-0.3-2.3-0.9-3.3c-0.6-1-1.4-1.8-2.4-2.3c-1-0.6-2.1-0.9-3.3-0.9H213v12.9h4.8C219,149.2,220.1,148.9,221.1,148.3z"/>
	<path class="st2" d="M239.8,150.6l-3.4-5.1c-0.5,0-0.8,0-1.1,0H231v5.1h-1.6v-15.7h5.9c2,0,3.5,0.5,4.6,1.4
		c1.1,0.9,1.6,2.2,1.6,3.9c0,1.3-0.3,2.4-0.9,3.3c-0.6,0.9-1.5,1.5-2.7,1.8l3.8,5.4H239.8z M235.3,144.1c1.5,0,2.7-0.3,3.5-1
		c0.8-0.7,1.2-1.7,1.2-3c0-1.3-0.4-2.2-1.2-2.9s-2-1-3.5-1H231v7.9H235.3z"/>
	<path class="st2" d="M245.9,134.8h10.5v1.4h-9v5.6h8v1.4h-8v5.9h9.3v1.4h-10.8V134.8z"/>
	<path class="st2" d="M272.4,150.6l-1.9-4.2h-8.7l-1.8,4.2h-1.7l7.1-15.7h1.6l7.1,15.7H272.4z M262.5,145h7.5l-3.8-8.5L262.5,145z"
		/>
	<path class="st2" d="M276.9,134.8h1.9l6.2,11.8l6.1-11.8h1.9v15.8h-1.4l0-13.6l-6.2,11.9h-0.9l-6.2-11.9v13.6h-1.5V134.8z"/>
	<path class="st2" d="M304.8,136.5c-0.8-0.2-1.5-0.3-2.2-0.3c-1.1,0-1.9,0.2-2.6,0.6s-1,1-1,1.7c0,0.6,0.2,1.2,0.5,1.6
		c0.4,0.4,0.8,0.7,1.3,1c0.5,0.2,1.2,0.5,2.2,0.8c1.1,0.3,1.9,0.6,2.6,0.9c0.7,0.3,1.2,0.8,1.7,1.3s0.7,1.4,0.7,2.3
		c0,0.8-0.2,1.6-0.7,2.2c-0.5,0.6-1.1,1.1-2,1.5c-0.9,0.4-1.8,0.5-2.9,0.5c-1.1,0-2.2-0.2-3.2-0.7c-1-0.4-1.9-1-2.7-1.7l0.7-1.3
		c0.7,0.7,1.5,1.2,2.5,1.6c0.9,0.4,1.8,0.6,2.7,0.6c1.2,0,2.2-0.2,2.9-0.7s1.1-1.1,1.1-2c0-0.7-0.2-1.2-0.5-1.6s-0.8-0.7-1.3-1
		c-0.5-0.2-1.3-0.5-2.2-0.8c-1.1-0.3-1.9-0.6-2.6-0.9c-0.6-0.3-1.2-0.7-1.6-1.3s-0.7-1.3-0.7-2.3c0-0.8,0.2-1.5,0.7-2.1
		c0.5-0.6,1.1-1.1,1.9-1.4c0.8-0.3,1.7-0.5,2.8-0.5c0.9,0,1.7,0.1,2.6,0.4c0.9,0.3,1.6,0.6,2.3,1l-0.7,1.3
		C306.2,137,305.5,136.7,304.8,136.5z"/>
	<path class="st3" d="M318.4,134.8h9.9v1.4h-8.3v6.1h7.4v1.4h-7.4v6.9h-1.6V134.8z"/>
	<path class="st3" d="M342,135.8c1.3,0.7,2.2,1.7,3,2.9c0.7,1.2,1.1,2.6,1.1,4c0,1.5-0.4,2.8-1.1,4c-0.7,1.2-1.7,2.2-3,2.9
		c-1.3,0.7-2.6,1.1-4.1,1.1s-2.9-0.4-4.1-1.1c-1.3-0.7-2.2-1.7-3-2.9c-0.7-1.2-1.1-2.6-1.1-4c0-1.5,0.4-2.8,1.1-4
		c0.7-1.2,1.7-2.2,3-2.9c1.3-0.7,2.6-1.1,4.1-1.1S340.7,135.1,342,135.8z M334.5,137c-1,0.6-1.8,1.4-2.4,2.4c-0.6,1-0.9,2.1-0.9,3.3
		c0,1.2,0.3,2.3,0.9,3.3s1.4,1.8,2.4,2.4c1,0.6,2.1,0.9,3.3,0.9c1.2,0,2.3-0.3,3.3-0.9c1-0.6,1.8-1.4,2.4-2.4c0.6-1,0.9-2.1,0.9-3.3
		c0-1.2-0.3-2.3-0.9-3.3c-0.6-1-1.4-1.8-2.4-2.4c-1-0.6-2.1-0.9-3.3-0.9C336.7,136.1,335.6,136.4,334.5,137z"/>
	<path class="st3" d="M360,150.6l-3.4-5.1c-0.5,0-0.8,0-1.1,0h-4.3v5.1h-1.6v-15.7h5.9c2,0,3.5,0.5,4.6,1.4c1.1,0.9,1.6,2.2,1.6,3.9
		c0,1.3-0.3,2.4-0.9,3.3c-0.6,0.9-1.5,1.5-2.7,1.8l3.8,5.4H360z M355.5,144.1c1.5,0,2.7-0.3,3.5-1c0.8-0.7,1.2-1.7,1.2-3
		c0-1.3-0.4-2.2-1.2-2.9s-2-1-3.5-1h-4.3v7.9H355.5z"/>
	<path class="st2" d="M379.1,136.5c-0.8-0.2-1.5-0.3-2.2-0.3c-1.1,0-1.9,0.2-2.6,0.6s-1,1-1,1.7c0,0.6,0.2,1.2,0.5,1.6
		c0.4,0.4,0.8,0.7,1.3,1c0.5,0.2,1.2,0.5,2.2,0.8c1.1,0.3,1.9,0.6,2.6,0.9c0.7,0.3,1.2,0.8,1.7,1.3s0.7,1.4,0.7,2.3
		c0,0.8-0.2,1.6-0.7,2.2c-0.5,0.6-1.1,1.1-2,1.5c-0.9,0.4-1.8,0.5-2.9,0.5c-1.1,0-2.2-0.2-3.2-0.7c-1-0.4-1.9-1-2.7-1.7l0.7-1.3
		c0.7,0.7,1.5,1.2,2.5,1.6c0.9,0.4,1.8,0.6,2.7,0.6c1.2,0,2.2-0.2,2.9-0.7s1.1-1.1,1.1-2c0-0.7-0.2-1.2-0.5-1.6s-0.8-0.7-1.3-1
		c-0.5-0.2-1.3-0.5-2.2-0.8c-1.1-0.3-1.9-0.6-2.6-0.9c-0.6-0.3-1.2-0.7-1.6-1.3s-0.7-1.3-0.7-2.3c0-0.8,0.2-1.5,0.7-2.1
		c0.5-0.6,1.1-1.1,1.9-1.4c0.8-0.3,1.7-0.5,2.8-0.5c0.9,0,1.7,0.1,2.6,0.4c0.9,0.3,1.6,0.6,2.3,1l-0.7,1.3
		C380.6,137,379.9,136.7,379.1,136.5z"/>
	<path class="st2" d="M395.6,136.6c-0.8-0.3-1.7-0.5-2.6-0.5c-1.2,0-2.3,0.3-3.3,0.9s-1.8,1.4-2.4,2.4c-0.6,1-0.9,2.1-0.9,3.3
		c0,1.2,0.3,2.3,0.9,3.3c0.6,1,1.4,1.8,2.4,2.4c1,0.6,2.1,0.9,3.3,0.9c0.9,0,1.7-0.2,2.5-0.5c0.8-0.3,1.6-0.8,2.2-1.4l0.9,1
		c-0.8,0.7-1.7,1.3-2.7,1.7c-1,0.4-2,0.6-3.1,0.6c-1.5,0-2.8-0.4-4.1-1.1c-1.2-0.7-2.2-1.7-3-2.9c-0.7-1.2-1.1-2.6-1.1-4
		c0-1.5,0.4-2.8,1.1-4c0.7-1.2,1.7-2.2,3-2.9c1.3-0.7,2.6-1.1,4.1-1.1c1.1,0,2.1,0.2,3.1,0.6c1,0.4,1.9,0.9,2.6,1.7l-0.9,1.1
		C397.1,137.4,396.4,136.9,395.6,136.6z"/>
	<path class="st2" d="M402.3,134.8h1.6v7.2h9.8v-7.2h1.6v15.7h-1.6v-7.1h-9.8v7.1h-1.6V134.8z"/>
	<path class="st2" d="M431.2,135.8c1.3,0.7,2.2,1.7,3,2.9c0.7,1.2,1.1,2.6,1.1,4c0,1.5-0.4,2.8-1.1,4c-0.7,1.2-1.7,2.2-3,2.9
		c-1.3,0.7-2.6,1.1-4.1,1.1s-2.9-0.4-4.1-1.1c-1.3-0.7-2.2-1.7-3-2.9c-0.7-1.2-1.1-2.6-1.1-4c0-1.5,0.4-2.8,1.1-4
		c0.7-1.2,1.7-2.2,3-2.9c1.3-0.7,2.6-1.1,4.1-1.1S429.9,135.1,431.2,135.8z M423.7,137c-1,0.6-1.8,1.4-2.4,2.4
		c-0.6,1-0.9,2.1-0.9,3.3c0,1.2,0.3,2.3,0.9,3.3s1.4,1.8,2.4,2.4c1,0.6,2.1,0.9,3.3,0.9c1.2,0,2.3-0.3,3.3-0.9
		c1-0.6,1.8-1.4,2.4-2.4c0.6-1,0.9-2.1,0.9-3.3c0-1.2-0.3-2.3-0.9-3.3c-0.6-1-1.4-1.8-2.4-2.4c-1-0.6-2.1-0.9-3.3-0.9
		C425.9,136.1,424.8,136.4,423.7,137z"/>
	<path class="st2" d="M449.3,135.8c1.3,0.7,2.2,1.7,3,2.9c0.7,1.2,1.1,2.6,1.1,4c0,1.5-0.4,2.8-1.1,4c-0.7,1.2-1.7,2.2-3,2.9
		c-1.3,0.7-2.6,1.1-4.1,1.1s-2.9-0.4-4.1-1.1c-1.3-0.7-2.2-1.7-3-2.9c-0.7-1.2-1.1-2.6-1.1-4c0-1.5,0.4-2.8,1.1-4
		c0.7-1.2,1.7-2.2,3-2.9c1.3-0.7,2.6-1.1,4.1-1.1S448.1,135.1,449.3,135.8z M441.9,137c-1,0.6-1.8,1.4-2.4,2.4
		c-0.6,1-0.9,2.1-0.9,3.3c0,1.2,0.3,2.3,0.9,3.3s1.4,1.8,2.4,2.4c1,0.6,2.1,0.9,3.3,0.9c1.2,0,2.3-0.3,3.3-0.9
		c1-0.6,1.8-1.4,2.4-2.4c0.6-1,0.9-2.1,0.9-3.3c0-1.2-0.3-2.3-0.9-3.3c-0.6-1-1.4-1.8-2.4-2.4c-1-0.6-2.1-0.9-3.3-0.9
		C444,136.1,442.9,136.4,441.9,137z"/>
	<path class="st2" d="M457,134.8h1.6v14.3h6.9v1.4H457V134.8z"/>
	<path class="st2" d="M475.4,136.5c-0.8-0.2-1.5-0.3-2.2-0.3c-1.1,0-1.9,0.2-2.6,0.6s-1,1-1,1.7c0,0.6,0.2,1.2,0.5,1.6
		c0.4,0.4,0.8,0.7,1.3,1c0.5,0.2,1.2,0.5,2.2,0.8c1.1,0.3,1.9,0.6,2.6,0.9c0.7,0.3,1.2,0.8,1.7,1.3s0.7,1.4,0.7,2.3
		c0,0.8-0.2,1.6-0.7,2.2c-0.5,0.6-1.1,1.1-2,1.5c-0.9,0.4-1.8,0.5-2.9,0.5c-1.1,0-2.2-0.2-3.2-0.7c-1-0.4-1.9-1-2.7-1.7l0.7-1.3
		c0.7,0.7,1.5,1.2,2.5,1.6c0.9,0.4,1.8,0.6,2.7,0.6c1.2,0,2.2-0.2,2.9-0.7s1.1-1.1,1.1-2c0-0.7-0.2-1.2-0.5-1.6s-0.8-0.7-1.3-1
		c-0.5-0.2-1.3-0.5-2.2-0.8c-1.1-0.3-1.9-0.6-2.6-0.9c-0.6-0.3-1.2-0.7-1.6-1.3s-0.7-1.3-0.7-2.3c0-0.8,0.2-1.5,0.7-2.1
		c0.5-0.6,1.1-1.1,1.9-1.4c0.8-0.3,1.7-0.5,2.8-0.5c0.9,0,1.7,0.1,2.6,0.4c0.9,0.3,1.6,0.6,2.3,1l-0.7,1.3
		C476.8,137,476.1,136.7,475.4,136.5z"/>
</g>
<g>
</g>
<g>
</g>
<g>
</g>
<g>
</g>
<g>
</g>
<g>
</g>
</svg>
