<?xml version="1.0" standalone="no"?>
<!DOCTYPE svg PUBLIC "-//W3C//DTD SVG 20010904//EN"
 "http://www.w3.org/TR/2001/REC-SVG-20010904/DTD/svg10.dtd">
<svg version="1.0" xmlns="http://www.w3.org/2000/svg"
 width="1420.000000pt" height="185.000000pt" viewBox="0 0 1420.000000 185.000000"
 preserveAspectRatio="xMidYMid meet">
<metadata>
Created by potrace 1.16, written by Peter Selinger 2001-2019
</metadata>
<g transform="translate(0.000000,185.000000) scale(0.100000,-0.100000)"
fill="#000000" stroke="none">
<path d="M6484 871 c-42 -18 -73 -68 -80 -131 -6 -58 -8 -60 -35 -60 -27 0
-29 -3 -29 -40 0 -38 2 -40 30 -40 l30 0 0 -215 0 -215 45 0 45 0 0 215 0 215
75 0 75 0 0 35 0 35 -75 0 -75 0 0 45 c0 36 6 52 26 72 23 23 31 25 75 19 l50
-7 -3 38 -3 38 -65 2 c-36 1 -74 -2 -86 -6z"/>
<path d="M110 511 l0 -341 134 0 c73 0 156 4 184 10 116 22 203 88 251 189 22
47 26 70 26 146 0 78 -4 97 -28 147 -33 68 -90 121 -166 157 -52 24 -67 26
-228 29 l-173 4 0 -341z m366 231 c88 -46 135 -118 142 -218 5 -77 -24 -149
-80 -200 -61 -54 -99 -67 -225 -72 l-113 -5 0 263 0 262 118 -4 c96 -3 125 -8
158 -26z"/>
<path d="M6970 510 l0 -340 245 0 245 0 0 40 0 40 -205 0 -205 0 0 115 0 115
185 0 185 0 0 35 0 35 -185 0 -185 0 0 110 0 110 205 0 205 0 0 40 0 40 -245
0 -245 0 0 -340z"/>
<path d="M2870 750 l0 -70 -35 0 c-34 0 -35 -1 -35 -40 0 -39 1 -40 34 -40
l35 0 3 -185 c3 -184 3 -185 29 -211 35 -35 100 -48 161 -34 47 12 48 12 48
52 0 34 -3 39 -17 33 -10 -4 -35 -9 -55 -12 -30 -4 -41 -1 -62 20 -26 26 -26
28 -26 182 l0 155 80 0 80 0 0 40 0 40 -80 0 -80 0 0 70 0 70 -40 0 -40 0 0
-70z"/>
<path d="M5200 750 l0 -70 -35 0 c-34 0 -35 -1 -35 -40 0 -39 1 -40 35 -40
l35 0 0 -172 c0 -154 2 -177 20 -205 10 -17 27 -36 37 -41 35 -18 92 -23 137
-11 45 11 46 12 46 51 0 34 -3 39 -17 33 -10 -4 -35 -9 -55 -12 -30 -4 -41 -1
-62 20 -26 26 -26 28 -26 182 l0 155 80 0 80 0 0 40 0 40 -80 0 -80 0 0 70 0
70 -40 0 -40 0 0 -70z"/>
<path d="M975 681 c-116 -30 -185 -125 -185 -256 0 -110 47 -192 134 -237 88
-45 216 -30 291 36 l40 34 -25 21 c-32 26 -35 26 -77 -6 -26 -20 -50 -28 -93
-31 -92 -7 -149 30 -178 116 l-11 32 196 0 196 0 -5 68 c-7 99 -46 165 -119
202 -42 22 -122 32 -164 21z m135 -97 c31 -26 51 -58 64 -101 l7 -23 -155 0
-155 0 11 33 c27 79 76 117 150 117 36 0 54 -6 78 -26z"/>
<path d="M1558 679 c-20 -6 -55 -26 -77 -46 l-41 -35 0 41 0 41 -45 0 -45 0 0
-330 0 -330 45 0 45 0 0 109 0 110 50 -34 c61 -41 120 -52 192 -35 66 16 147
93 166 156 15 52 15 145 0 195 -14 50 -69 114 -118 139 -46 24 -123 32 -172
19z m122 -89 c46 -23 74 -60 89 -118 46 -170 -138 -302 -265 -190 -47 42 -64
77 -64 137 0 61 13 97 48 135 54 57 124 70 192 36z"/>
<path d="M3382 680 c-19 -4 -49 -23 -68 -41 l-34 -33 0 37 c0 36 -1 37 -40 37
l-40 0 0 -255 0 -255 40 0 40 0 0 158 c0 133 3 163 20 199 44 99 169 110 217
20 14 -26 18 -65 21 -204 l4 -173 39 0 39 0 0 168 c0 189 9 221 71 254 41 22
71 23 114 2 57 -27 65 -59 65 -253 l0 -171 46 0 46 0 -4 193 c-4 208 -8 229
-65 281 -68 63 -204 55 -272 -17 l-23 -26 -34 34 c-48 48 -107 63 -182 45z"/>
<path d="M4235 681 c-113 -29 -184 -125 -185 -250 0 -35 5 -81 12 -102 15 -51
70 -114 120 -140 89 -46 218 -31 292 33 l38 33 -27 25 c-21 20 -29 22 -43 12
-128 -90 -266 -59 -302 68 l-9 30 195 0 194 0 0 53 c-2 133 -82 228 -206 241
-27 3 -62 1 -79 -3z m134 -97 c34 -28 49 -51 61 -95 l9 -29 -154 0 -154 0 9
29 c21 76 78 121 152 121 36 0 54 -6 77 -26z"/>
<path d="M4800 679 c-19 -6 -50 -22 -67 -35 l-33 -25 0 30 c0 30 -1 31 -45 31
l-45 0 0 -255 0 -255 45 0 45 0 0 169 c0 158 1 170 23 202 43 65 124 86 185
49 54 -33 62 -68 62 -255 l0 -165 40 0 40 0 0 189 c0 110 -4 202 -11 218 -13
34 -45 70 -80 88 -36 19 -117 26 -159 14z"/>
<path d="M5957 680 c-58 -15 -91 -35 -134 -84 -46 -53 -63 -101 -63 -183 0
-152 130 -266 285 -250 222 23 315 301 154 454 -60 56 -161 83 -242 63z m120
-81 c47 -17 93 -70 108 -124 44 -155 -105 -286 -245 -215 -45 23 -73 59 -91
118 -15 51 -2 115 32 164 41 57 129 83 196 57z"/>
<path d="M7729 683 c-52 -9 -132 -66 -164 -117 -55 -91 -46 -236 22 -317 89
-106 263 -117 369 -24 l39 34 -26 26 -25 26 -55 -37 c-49 -33 -59 -36 -111
-32 -102 7 -162 75 -162 183 0 71 19 113 69 151 66 50 156 42 223 -19 l22 -21
30 29 30 29 -22 23 c-46 49 -159 80 -239 66z"/>
<path d="M8227 680 c-58 -15 -91 -35 -134 -84 -70 -79 -85 -199 -37 -294 94
-190 378 -186 470 7 23 47 30 140 14 197 -16 57 -86 136 -139 157 -52 21 -127
28 -174 17z m120 -81 c67 -25 115 -97 117 -174 1 -101 -77 -184 -172 -185
-147 0 -230 177 -141 302 41 57 129 83 196 57z"/>
<path d="M8838 680 c-36 -11 -95 -47 -102 -63 -2 -7 -5 5 -5 26 -1 36 -2 37
-41 37 l-40 0 0 -255 0 -255 40 0 40 0 0 163 c0 134 3 168 18 196 49 97 178
107 232 18 18 -28 20 -51 20 -204 l0 -173 46 0 46 0 -4 193 c-3 157 -6 198
-20 223 -44 80 -142 121 -230 94z"/>
<path d="M9373 681 c-58 -15 -124 -61 -153 -108 -87 -137 -44 -312 95 -386 57
-31 183 -31 241 0 83 44 144 145 144 238 0 92 -63 195 -143 234 -48 23 -137
34 -184 22z m161 -105 c108 -82 99 -251 -17 -317 -83 -46 -197 -6 -238 85 -43
95 -3 211 86 252 47 22 127 13 169 -20z"/>
<path d="M9967 675 c-22 -7 -50 -23 -63 -36 l-24 -22 0 31 c0 31 -1 32 -45 32
l-45 0 0 -255 0 -255 45 0 45 0 0 168 c0 189 9 220 71 254 41 23 100 19 131
-9 41 -36 48 -73 48 -248 l0 -165 39 0 40 0 3 168 c3 186 10 211 67 249 43 29
89 29 131 1 50 -34 58 -71 59 -255 l1 -163 40 0 40 0 0 188 c0 175 -2 191 -22
232 -13 25 -38 54 -55 66 -71 47 -187 37 -249 -21 l-34 -33 -33 33 c-31 31
-89 55 -132 55 -11 -1 -37 -7 -58 -15z"/>
<path d="M11047 676 c-63 -17 -113 -59 -151 -126 -26 -47 -30 -64 -30 -125 1
-80 17 -125 64 -179 91 -103 259 -113 365 -22 l40 35 -27 27 -26 27 -44 -32
c-101 -72 -220 -44 -269 64 -36 78 -15 173 50 228 59 49 139 48 211 -4 l43
-31 26 26 c32 33 24 48 -45 87 -60 34 -140 44 -207 25z"/>
<path d="M2022 663 c-52 -16 -54 -17 -48 -47 9 -43 18 -48 57 -32 91 37 179
28 223 -25 28 -33 37 -95 13 -86 -8 3 -43 8 -79 12 -196 21 -313 -89 -249
-232 42 -91 201 -122 296 -57 44 30 45 30 45 -1 0 -23 4 -25 45 -25 l45 0 0
154 c0 236 -19 298 -104 337 -51 23 -168 24 -244 2z m232 -254 c38 -10 38 -11
32 -50 -9 -55 -30 -84 -80 -109 -116 -56 -238 24 -185 121 23 44 142 63 233
38z"/>
<path d="M2480 425 l0 -255 45 0 45 0 0 126 c0 71 5 145 12 168 16 51 75 112
119 121 68 13 69 14 69 56 0 38 -1 39 -36 39 -48 0 -97 -24 -134 -66 l-30 -35
0 51 0 50 -45 0 -45 0 0 -255z"/>
<path d="M10680 425 l0 -255 40 0 40 0 0 255 0 255 -40 0 -40 0 0 -255z"/>
<path d="M11474 666 c-64 -28 -96 -103 -74 -170 15 -46 47 -68 147 -101 130
-42 160 -79 108 -130 -36 -37 -114 -35 -190 5 -32 17 -59 29 -60 28 -26 -38
-35 -54 -35 -61 0 -4 30 -22 68 -40 85 -40 186 -45 242 -11 51 29 80 78 80
132 0 66 -48 110 -159 147 -94 31 -133 61 -124 94 14 55 106 68 188 26 27 -13
49 -23 50 -22 1 1 9 14 18 29 9 15 17 30 17 33 0 3 -24 17 -52 30 -61 29 -171
34 -224 11z"/>
</g>
</svg>
