<?xml version="1.0" standalone="no"?>
<!DOCTYPE svg PUBLIC "-//W3C//DTD SVG 20010904//EN"
 "http://www.w3.org/TR/2001/REC-SVG-20010904/DTD/svg10.dtd">
<svg version="1.0" xmlns="http://www.w3.org/2000/svg"
 width="200.000000pt" height="200.000000pt" viewBox="0 0 200.000000 200.000000"
 preserveAspectRatio="xMidYMid meet">
<metadata>
Created by potrace 1.16, written by Peter Selinger 2001-2019
</metadata>
<g transform="translate(0.000000,200.000000) scale(0.100000,-0.100000)"
fill="#000000" stroke="none">
<path d="M827 1984 c-418 -75 -738 -399 -812 -819 -101 -581 336 -1127 931
-1162 60 -3 134 -1 185 6 89 13 269 67 269 80 0 4 -12 18 -26 32 -32 29 -54
78 -54 120 0 83 -15 104 -258 357 -144 148 -242 242 -253 242 -11 0 -29 -10
-40 -21 -40 -40 -8 -154 76 -273 28 -39 35 -58 35 -96 0 -126 -148 -205 -253
-135 -85 59 -96 163 -26 251 51 64 72 114 77 185 l4 66 -47 27 c-102 61 -111
182 -20 276 62 64 82 151 50 226 -8 20 -35 58 -59 85 -70 78 -73 160 -7 229
43 45 98 63 154 51 41 -10 53 -18 107 -67 44 -41 78 -54 140 -54 65 0 93 12
152 65 87 78 175 80 249 6 68 -68 65 -151 -8 -233 -54 -61 -73 -102 -73 -158
0 -53 22 -103 66 -152 65 -72 78 -131 45 -204 -59 -130 -235 -124 -303 10 -11
22 -26 44 -32 48 -19 13 -181 9 -199 -4 -9 -7 -19 -25 -22 -40 -6 -25 12 -47
217 -259 150 -157 236 -238 263 -250 26 -12 64 -19 108 -19 40 0 80 -6 96 -15
38 -19 78 -68 86 -105 4 -16 10 -30 14 -30 12 0 93 89 146 161 290 394 248
947 -100 1294 -230 231 -562 336 -878 279z"/>
<path d="M899 1487 c-70 -48 -125 -113 -139 -169 -49 -181 170 -331 356 -244
96 45 150 149 125 244 -13 48 -78 127 -136 166 -54 36 -155 37 -206 3z"/>
<path d="M1450 329 c-82 -33 -79 -151 4 -179 41 -13 75 -2 105 36 29 37 27 77
-6 113 -32 35 -67 45 -103 30z"/>
</g>
</svg>
