<?xml version="1.0" encoding="utf-8"?>
<!-- Generator: Adobe Illustrator 13.0.0, SVG Export Plug-In . SVG Version: 6.00 Build 14948)  -->
<!DOCTYPE svg PUBLIC "-//W3C//DTD SVG 1.1//EN" "http://www.w3.org/Graphics/SVG/1.1/DTD/svg11.dtd">
<svg version="1.1" id="Layer_1" xmlns="http://www.w3.org/2000/svg" xmlns:xlink="http://www.w3.org/1999/xlink" x="0px" y="0px"
	 width="212px" height="32px" viewBox="0 0 212 32" enable-background="new 0 0 212 32" xml:space="preserve">
<g>
	<rect fill="#343A40" width="212" height="32"/>
	<polygon fill="#6B6A6B" points="9.937,32 3.811,32 3.811,15.39 13.95,0 20.179,0 9.937,15.39 	"/>
	<g>
		<path fill="#FFFFFF" d="M17.653,23.002l1.543-0.927c1.087,2,2.341,2.999,3.764,2.999c0.609,0,1.181-0.141,1.716-0.426
			c0.535-0.284,0.942-0.664,1.223-1.142c0.279-0.478,0.419-0.983,0.419-1.519c0-0.609-0.206-1.205-0.617-1.79
			c-0.567-0.806-1.604-1.776-3.109-2.912c-1.515-1.143-2.457-1.97-2.827-2.48c-0.642-0.856-0.962-1.781-0.962-2.777
			c0-0.79,0.189-1.51,0.567-2.16c0.378-0.65,0.911-1.162,1.598-1.536c0.688-0.375,1.435-0.562,2.241-0.562
			c0.855,0,1.655,0.212,2.4,0.636c0.744,0.423,1.532,1.203,2.363,2.338l-1.48,1.124c-0.684-0.906-1.266-1.502-1.747-1.79
			s-1.006-0.432-1.573-0.432c-0.733,0-1.331,0.222-1.796,0.667s-0.698,0.992-0.698,1.642c0,0.395,0.083,0.777,0.248,1.147
			c0.164,0.371,0.464,0.774,0.899,1.209c0.239,0.23,1.021,0.835,2.346,1.814c1.571,1.16,2.649,2.192,3.234,3.099
			c0.583,0.904,0.876,1.813,0.876,2.729c0,1.314-0.5,2.46-1.5,3.431c-1,0.972-2.215,1.456-3.646,1.456c-1.104,0-2.103-0.295-3-0.883
			C19.237,25.369,18.411,24.384,17.653,23.002z"/>
		<path fill="#FFFFFF" d="M38.19,12.609c2.069,0,3.783,0.75,5.144,2.247c1.236,1.366,1.854,2.983,1.854,4.85
			c0,1.876-0.653,3.517-1.96,4.918c-1.307,1.403-2.986,2.104-5.038,2.104c-2.061,0-3.744-0.701-5.051-2.104
			c-1.307-1.401-1.959-3.042-1.959-4.918c0-1.86,0.618-3.472,1.854-4.838C34.395,13.362,36.113,12.609,38.19,12.609z M38.185,14.3
			c-1.437,0-2.672,0.531-3.703,1.592c-1.032,1.062-1.549,2.344-1.549,3.851c0,0.971,0.235,1.876,0.706,2.716
			c0.471,0.839,1.106,1.486,1.908,1.943c0.801,0.455,1.68,0.685,2.638,0.685c0.957,0,1.837-0.229,2.638-0.685
			c0.801-0.457,1.437-1.104,1.907-1.943c0.471-0.84,0.706-1.745,0.706-2.716c0-1.507-0.518-2.79-1.555-3.851
			C40.846,14.831,39.612,14.3,38.185,14.3z"/>
		<path fill="#FFFFFF" d="M48.126,7.771h1.728v18.611h-1.728V7.771z"/>
		<path fill="#FFFFFF" d="M54.043,7.426c0.394,0,0.729,0.14,1.008,0.42c0.279,0.28,0.418,0.617,0.418,1.012
			c0,0.387-0.14,0.72-0.418,1c-0.278,0.28-0.614,0.419-1.008,0.419c-0.385,0-0.716-0.14-0.995-0.419
			c-0.278-0.28-0.418-0.613-0.418-1c0-0.395,0.14-0.732,0.418-1.012C53.327,7.566,53.658,7.426,54.043,7.426z M53.186,12.955h1.729
			v13.428h-1.729V12.955z"/>
		<path fill="#FFFFFF" d="M71.908,7.771v18.611h-1.703v-2.308c-0.724,0.88-1.537,1.543-2.438,1.986
			c-0.9,0.443-1.887,0.666-2.956,0.666c-1.9,0-3.523-0.688-4.868-2.066c-1.346-1.378-2.019-3.055-2.019-5.029
			c0-1.934,0.679-3.587,2.036-4.961c1.358-1.374,2.991-2.061,4.9-2.061c1.103,0,2.1,0.235,2.992,0.704
			c0.894,0.469,1.677,1.172,2.352,2.11V7.771H71.908z M65.003,14.276c-0.961,0-1.849,0.236-2.663,0.708
			c-0.813,0.473-1.46,1.136-1.941,1.993c-0.48,0.854-0.721,1.758-0.721,2.709c0,0.946,0.242,1.851,0.727,2.713
			c0.485,0.862,1.137,1.535,1.954,2.017c0.817,0.479,1.695,0.722,2.633,0.722c0.944,0,1.84-0.238,2.688-0.716
			c0.846-0.476,1.497-1.121,1.953-1.935c0.456-0.814,0.685-1.73,0.685-2.75c0-1.553-0.512-2.852-1.535-3.896
			C67.759,14.798,66.498,14.276,65.003,14.276z"/>
		<path fill="#FFFFFF" d="M81.227,23.002l1.542-0.927c1.087,2,2.341,2.999,3.765,2.999c0.608,0,1.181-0.141,1.715-0.426
			c0.535-0.284,0.942-0.664,1.223-1.142c0.279-0.478,0.42-0.983,0.42-1.519c0-0.609-0.206-1.205-0.618-1.79
			c-0.567-0.806-1.604-1.776-3.109-2.912c-1.515-1.143-2.457-1.97-2.826-2.48c-0.642-0.856-0.963-1.781-0.963-2.777
			c0-0.79,0.189-1.51,0.567-2.16c0.379-0.65,0.911-1.162,1.599-1.536c0.688-0.375,1.434-0.562,2.239-0.562
			c0.856,0,1.656,0.212,2.401,0.636c0.744,0.423,1.532,1.203,2.363,2.338l-1.481,1.124c-0.683-0.906-1.265-1.502-1.745-1.79
			c-0.482-0.288-1.007-0.432-1.574-0.432c-0.732,0-1.331,0.222-1.796,0.667c-0.465,0.445-0.697,0.992-0.697,1.642
			c0,0.395,0.082,0.777,0.247,1.147c0.164,0.371,0.465,0.774,0.9,1.209c0.239,0.23,1.021,0.835,2.346,1.814
			c1.571,1.16,2.648,2.192,3.233,3.099c0.584,0.904,0.876,1.813,0.876,2.729c0,1.314-0.5,2.46-1.5,3.431
			c-0.999,0.972-2.215,1.456-3.646,1.456c-1.103,0-2.103-0.295-3-0.883C82.81,25.369,81.983,24.384,81.227,23.002z"/>
		<path fill="#FFFFFF" d="M96.913,7.969h1.728v4.986h2.739v1.494h-2.739v11.934h-1.728V14.449h-2.357v-1.494h2.357V7.969z"/>
		<path fill="#FFFFFF" d="M117.352,12.955v13.428h-1.703v-2.308c-0.725,0.88-1.537,1.543-2.438,1.985
			c-0.899,0.444-1.886,0.668-2.955,0.668c-1.901,0-3.524-0.689-4.869-2.067c-1.346-1.378-2.018-3.054-2.018-5.029
			c0-1.934,0.679-3.587,2.036-4.961s2.991-2.061,4.899-2.061c1.104,0,2.102,0.235,2.993,0.704c0.894,0.469,1.677,1.172,2.351,2.11
			v-2.468L117.352,12.955L117.352,12.955z M110.445,14.276c-0.961,0-1.85,0.236-2.662,0.708c-0.813,0.473-1.462,1.136-1.941,1.993
			c-0.481,0.854-0.722,1.758-0.722,2.709c0,0.946,0.242,1.851,0.728,2.713c0.484,0.862,1.136,1.535,1.954,2.017
			c0.817,0.479,1.694,0.722,2.632,0.722c0.944,0,1.842-0.238,2.688-0.716c0.847-0.476,1.498-1.121,1.954-1.935
			c0.456-0.814,0.685-1.73,0.685-2.75c0-1.553-0.511-2.852-1.535-3.896C113.201,14.798,111.941,14.276,110.445,14.276z"/>
		<path fill="#FFFFFF" d="M122.744,7.969h1.729v4.986h2.739v1.494h-2.739v11.934h-1.729V14.449h-2.357v-1.494h2.357V7.969z"/>
		<path fill="#FFFFFF" d="M141.109,21.928l1.455,0.766c-0.478,0.938-1.028,1.695-1.654,2.271c-0.626,0.576-1.33,1.015-2.112,1.315
			c-0.782,0.3-1.668,0.449-2.655,0.449c-2.19,0-3.904-0.719-5.14-2.152c-1.235-1.438-1.854-3.059-1.854-4.869
			c0-1.703,0.522-3.222,1.568-4.555c1.326-1.694,3.102-2.542,5.325-2.542c2.289,0,4.117,0.868,5.483,2.604
			c0.973,1.226,1.467,2.756,1.481,4.591h-12.082c0.033,1.561,0.531,2.84,1.495,3.836c0.964,0.998,2.154,1.496,3.571,1.496
			c0.684,0,1.349-0.119,1.995-0.356c0.646-0.236,1.195-0.554,1.648-0.945C140.091,23.439,140.582,22.805,141.109,21.928z
			 M141.109,18.313c-0.231-0.922-0.566-1.657-1.008-2.209c-0.44-0.551-1.023-0.996-1.75-1.333c-0.725-0.337-1.485-0.506-2.285-0.506
			c-1.317,0-2.45,0.424-3.397,1.271c-0.69,0.617-1.215,1.543-1.569,2.777H141.109z"/>
		<path fill="#FFFFFF" d="M153.523,26.383V8.229h0.396l12.083,13.916V8.229h1.79v18.154h-0.408l-11.981-13.747v13.747H153.523z"/>
		<path fill="#FFFFFF" d="M171.383,26.383l2.6-18.154h0.295l7.382,14.896l7.31-14.896h0.29l2.613,18.154h-1.779L188.299,13.4
			l-6.419,12.983h-0.464l-6.496-13.082l-1.783,13.082H171.383z"/>
		<path fill="#FFFFFF" d="M195.536,8.229h3.616c2.016,0,3.382,0.082,4.098,0.247c1.078,0.247,1.954,0.776,2.628,1.587
			c0.677,0.812,1.013,1.81,1.013,2.997c0,0.989-0.231,1.858-0.697,2.608c-0.465,0.749-1.129,1.314-1.992,1.698
			c-0.864,0.384-2.057,0.579-3.579,0.588l6.528,8.429h-2.244l-6.529-8.429h-1.025v8.429h-1.813V8.229H195.536z M197.352,10.005
			v6.171l3.127,0.025c1.211,0,2.106-0.115,2.688-0.346c0.581-0.23,1.034-0.599,1.359-1.104c0.326-0.507,0.488-1.072,0.488-1.698
			c0-0.609-0.164-1.162-0.494-1.66s-0.763-0.854-1.297-1.068c-0.537-0.214-1.428-0.321-2.672-0.321L197.352,10.005L197.352,10.005z"
			/>
	</g>
</g>
</svg>
