<?xml version="1.0" standalone="no"?>
<!DOCTYPE svg PUBLIC "-//W3C//DTD SVG 20010904//EN"
 "http://www.w3.org/TR/2001/REC-SVG-20010904/DTD/svg10.dtd">
<svg version="1.0" xmlns="http://www.w3.org/2000/svg"
 width="1920.000000pt" height="1784.000000pt" viewBox="0 0 1920.000000 1784.000000"
 preserveAspectRatio="xMidYMid meet">
<metadata>
Created by potrace 1.16, written by Peter Selinger 2001-2019
</metadata>
<g transform="translate(0.000000,1784.000000) scale(0.100000,-0.100000)"
fill="#000000" stroke="none">
<path d="M11162 16442 c-551 -235 -676 -292 -688 -312 -10 -19 -13 -87 -13
-305 -1 -252 1 -282 17 -303 10 -13 115 -69 242 -130 l225 -108 0 -374 c0
-206 -1 -864 -3 -1462 -2 -598 0 -1093 3 -1099 4 -6 18 -8 34 -4 19 5 807 586
874 645 5 4 12 839 17 1856 8 1693 8 1850 -7 1866 -9 10 -19 18 -22 17 -3 0
-309 -130 -679 -287z"/>
<path d="M12848 15757 c-327 -120 -506 -190 -520 -205 l-23 -23 -3 -1183 c-2
-1073 -1 -1184 14 -1196 13 -12 30 -10 102 9 48 12 164 42 257 66 177 45 360
93 579 150 70 19 139 41 152 50 l24 16 -2 1247 -3 1247 -40 2 c-30 1 -165 -44
-537 -180z"/>
<path d="M9678 15517 c-158 -73 -298 -143 -312 -156 l-26 -24 0 -296 0 -296
93 -87 94 -86 11 -69 c7 -43 11 -264 12 -608 1 -495 2 -542 18 -569 10 -17
103 -93 211 -173 194 -144 229 -161 259 -131 9 9 12 312 12 1303 0 1239 -1
1293 -18 1308 -10 10 -29 17 -43 16 -13 0 -153 -60 -311 -132z"/>
<path d="M8885 14614 c-132 -52 -312 -123 -400 -158 l-160 -64 -8 -138 c-4
-77 -6 -193 -5 -259 l3 -120 404 -104 c293 -75 409 -101 420 -94 27 17 31 108
29 567 -3 426 -4 439 -23 452 -18 11 -49 1 -260 -82z"/>
<path d="M5264 14481 c-20 -5 -193 -143 -485 -387 -564 -472 -2812 -2345
-3009 -2508 -80 -65 -161 -135 -182 -154 -20 -19 -40 -32 -45 -29 -5 3 -7 -8
-5 -25 l5 -31 156 6 c86 4 240 7 343 7 l187 0 278 228 c153 125 793 650 1423
1167 630 516 1191 976 1247 1022 136 112 147 114 240 37 98 -82 116 -96 583
-482 228 -189 538 -445 689 -570 406 -336 606 -501 916 -757 396 -327 516
-427 635 -532 l105 -93 353 0 353 0 -12 23 c-13 25 -29 40 -159 145 -52 42
-176 144 -275 227 -99 82 -266 221 -370 307 -105 86 -329 272 -500 413 -170
142 -330 274 -354 294 -24 20 -130 107 -235 195 -105 87 -238 198 -296 245
-58 48 -224 186 -370 307 -146 121 -382 316 -524 434 -143 118 -342 284 -443
368 -101 83 -192 152 -201 151 -9 -1 -31 -4 -48 -8z"/>
<path d="M5576 14449 c10 -12 195 -166 409 -342 215 -176 445 -366 511 -421
119 -99 159 -132 374 -308 58 -48 191 -157 295 -243 105 -86 219 -180 255
-210 36 -29 149 -122 251 -206 102 -85 318 -262 479 -394 161 -132 417 -343
569 -468 361 -299 504 -416 549 -449 l37 -26 1279 -6 1278 -6 -6 22 c-3 13 -6
28 -6 35 0 6 -163 136 -362 289 -200 153 -496 380 -658 504 -558 429 -1555
1194 -1672 1283 l-118 90 -442 112 c-244 62 -729 186 -1078 275 -349 89 -693
177 -765 195 -71 18 -328 83 -570 145 -242 61 -474 120 -515 131 -41 10 -84
19 -94 19 -19 0 -19 0 0 -21z"/>
<path d="M13468 12520 c-1267 -1058 -1307 -1092 -1296 -1116 l11 -24 254 0
253 0 183 151 c100 83 342 282 537 443 195 161 582 480 860 710 459 379 507
416 540 416 34 0 119 -68 1070 -860 l1033 -860 278 0 279 0 0 23 c0 16 -14 35
-42 58 -24 18 -414 342 -868 718 -454 377 -917 762 -1030 855 -113 94 -312
259 -442 368 -194 161 -245 199 -275 203 -38 5 -43 1 -1345 -1085z"/>
<path d="M14360 13539 c-102 -27 -288 -76 -415 -109 -126 -33 -349 -91 -495
-129 -146 -38 -344 -89 -440 -114 -96 -26 -391 -102 -654 -172 -264 -69 -480
-125 -482 -125 -1 0 -74 -55 -161 -123 -87 -67 -170 -131 -185 -142 -14 -11
-132 -103 -262 -204 -180 -140 -236 -189 -236 -205 0 -17 54 -62 238 -199 130
-97 352 -262 492 -366 140 -105 258 -191 261 -191 5 0 360 288 624 507 135
112 199 165 435 358 327 269 764 628 865 710 50 41 160 132 245 202 86 70 210
173 277 228 113 93 139 127 94 124 -9 0 -99 -23 -201 -50z"/>
<path d="M4597 12592 c-14 -16 -17 -44 -17 -184 0 -147 2 -167 18 -181 16 -15
47 -17 224 -17 186 0 206 2 221 18 14 16 17 44 17 179 0 217 17 203 -247 203
-181 0 -201 -2 -216 -18z"/>
<path d="M5197 12592 c-14 -16 -17 -44 -17 -184 0 -147 2 -167 18 -181 16 -15
47 -17 224 -17 186 0 206 2 221 18 14 16 17 44 17 179 0 217 17 203 -247 203
-181 0 -201 -2 -216 -18z"/>
<path d="M14437 12192 c-14 -15 -17 -40 -17 -124 0 -142 -5 -138 182 -138 183
0 178 -4 178 142 0 142 5 138 -182 138 -128 0 -147 -2 -161 -18z"/>
<path d="M14877 12192 c-14 -15 -17 -40 -17 -124 0 -142 -5 -138 182 -138 183
0 178 -4 178 142 0 142 5 138 -182 138 -128 0 -147 -2 -161 -18z"/>
<path d="M4607 12112 c-14 -16 -17 -44 -17 -184 0 -147 2 -167 18 -181 16 -15
47 -17 224 -17 186 0 206 2 221 18 14 16 17 44 17 179 0 217 17 203 -247 203
-181 0 -201 -2 -216 -18z"/>
<path d="M5197 12112 c-14 -16 -17 -44 -17 -184 0 -147 2 -167 18 -181 16 -15
47 -17 224 -17 186 0 206 2 221 18 14 16 17 44 17 179 0 217 17 203 -247 203
-181 0 -201 -2 -216 -18z"/>
<path d="M14437 11852 c-14 -15 -17 -40 -17 -124 0 -142 -5 -138 182 -138 183
0 178 -4 178 142 0 142 5 138 -182 138 -128 0 -147 -2 -161 -18z"/>
<path d="M14877 11852 c-14 -15 -17 -40 -17 -124 0 -142 -5 -138 182 -138 183
0 178 -4 178 142 0 142 5 138 -182 138 -128 0 -147 -2 -161 -18z"/>
<path d="M989 10294 c-9 -11 -10 -20 -2 -32 9 -16 597 -17 8628 -17 8031 0
8619 1 8628 17 8 12 7 21 -2 32 -12 15 -780 16 -8626 16 -7846 0 -8614 -1
-8626 -16z"/>
<path d="M1179 9334 c-98 -30 -194 -123 -219 -212 -26 -96 -2 -195 65 -270 49
-55 123 -106 308 -213 199 -114 247 -166 247 -264 0 -57 -17 -91 -68 -137 -54
-49 -129 -66 -218 -51 -156 27 -248 119 -285 286 -9 44 -16 57 -31 57 -17 0
-18 -13 -18 -205 0 -190 1 -205 18 -205 10 0 22 12 29 30 6 16 19 33 28 36 8
4 62 -8 118 -26 182 -59 328 -50 440 25 130 86 179 230 126 372 -37 98 -93
142 -384 306 -189 106 -250 170 -242 255 6 56 47 116 100 144 32 17 58 22 112
22 83 0 142 -23 205 -80 58 -53 86 -110 114 -236 4 -16 13 -28 21 -28 13 0 15
31 15 205 0 177 -2 205 -15 205 -9 0 -19 -10 -24 -23 -19 -49 -37 -54 -105
-28 -143 54 -244 64 -337 35z"/>
<path d="M3154 9335 c-217 -47 -392 -230 -438 -457 -83 -403 181 -758 564
-758 156 0 277 50 394 161 86 81 146 184 172 295 21 88 21 240 0 328 -49 209
-233 393 -434 435 -70 14 -182 13 -258 -4z m225 -61 c196 -55 291 -260 278
-599 -6 -144 -19 -212 -57 -289 -91 -188 -334 -263 -497 -153 -89 60 -156 180
-183 327 -17 91 -13 306 6 393 57 254 238 382 453 321z"/>
<path d="M13155 8863 c-284 -664 -282 -661 -364 -683 -24 -6 -41 -17 -41 -25
0 -13 30 -15 190 -15 159 0 190 2 190 14 0 10 -16 17 -47 22 -29 4 -56 16 -71
31 -31 31 -27 52 39 211 l52 122 228 0 227 0 51 -129 c72 -183 68 -218 -31
-236 -23 -4 -38 -13 -38 -21 0 -12 41 -14 235 -14 192 0 235 2 235 14 0 7 -20
19 -45 26 -32 9 -56 25 -80 53 -37 43 -37 44 -436 997 -34 83 -53 116 -66 118
-16 2 -51 -72 -228 -485z m279 -27 c53 -126 94 -231 92 -233 -2 -2 -91 -2
-199 -1 l-196 3 100 230 c54 126 99 231 99 234 0 13 16 -23 104 -233z"/>
<path d="M4750 9315 c0 -11 11 -15 38 -15 58 0 105 -28 119 -73 9 -26 13 -139
14 -380 0 -188 5 -369 10 -402 35 -225 207 -337 493 -322 164 8 278 63 346
165 65 98 77 197 78 634 1 265 3 301 19 324 20 32 69 54 118 54 24 0 35 4 35
15 0 13 -31 15 -215 15 -184 0 -215 -2 -215 -15 0 -11 11 -15 43 -15 51 0 104
-30 118 -67 6 -17 9 -163 7 -408 -3 -341 -6 -385 -22 -429 -66 -173 -350 -253
-517 -146 -58 38 -92 91 -111 175 -19 86 -19 766 0 812 16 37 64 63 116 63 25
0 36 4 36 15 0 13 -35 15 -255 15 -220 0 -255 -2 -255 -15z"/>
<path d="M6907 9323 c-2 -5 -5 -44 -6 -88 -1 -44 -4 -98 -6 -120 -2 -21 -2
-42 1 -46 11 -18 32 5 39 39 10 55 45 110 84 135 30 18 54 22 158 25 l123 4 0
-505 c0 -297 -4 -516 -10 -531 -13 -34 -54 -59 -108 -66 -25 -3 -47 -11 -50
-17 -3 -10 52 -13 252 -13 221 0 256 2 256 15 0 11 -11 15 -35 15 -48 0 -101
23 -117 52 -10 18 -14 132 -16 537 l-3 513 123 -4 c108 -3 128 -6 166 -27 44
-26 92 -102 92 -147 0 -18 17 -34 37 -34 3 0 2 37 -1 83 -3 45 -6 106 -6 135
l0 52 -484 0 c-267 0 -487 -3 -489 -7z"/>
<path d="M8770 9316 c0 -9 18 -15 52 -19 68 -8 101 -33 110 -83 13 -71 8 -935
-5 -974 -14 -41 -63 -70 -119 -70 -27 0 -38 -4 -38 -15 0 -13 35 -15 255 -15
208 0 255 2 255 14 0 9 -18 15 -52 19 -59 7 -99 32 -109 68 -4 13 -7 124 -8
247 l-1 222 275 0 275 0 -1 -207 c-1 -247 -8 -288 -59 -314 -19 -11 -52 -19
-72 -19 -27 0 -38 -4 -38 -15 0 -13 35 -15 255 -15 220 0 255 2 255 15 0 11
-11 15 -35 15 -47 0 -98 22 -119 51 -14 21 -16 76 -16 509 0 368 3 491 13 510
16 32 72 60 120 60 26 0 37 4 37 15 0 13 -35 15 -255 15 -208 0 -255 -2 -255
-14 0 -8 17 -15 50 -19 64 -8 97 -30 110 -76 5 -20 10 -129 10 -243 l0 -208
-275 0 -275 0 0 223 c0 157 4 229 13 247 16 32 72 60 120 60 26 0 37 4 37 15
0 13 -35 15 -255 15 -208 0 -255 -2 -255 -14z"/>
<path d="M10870 9315 c0 -11 11 -15 41 -15 54 0 105 -25 118 -58 13 -34 13
-33 12 -559 l-1 -443 -28 -31 c-24 -27 -37 -33 -85 -37 -39 -3 -57 -9 -57 -18
0 -12 77 -14 463 -14 l463 0 47 153 c51 167 53 177 34 177 -7 0 -25 -29 -41
-65 -35 -80 -92 -147 -153 -176 -39 -19 -67 -23 -193 -27 -180 -6 -235 1 -255
32 -12 19 -15 97 -15 498 -1 330 3 483 11 500 16 36 59 57 128 65 38 3 60 10
58 17 -3 8 -88 12 -275 14 -238 2 -272 0 -272 -13z"/>
<path d="M14813 9310 c1 -15 8 -20 32 -20 46 0 126 -42 168 -88 l37 -42 -1
-443 c0 -315 -4 -452 -12 -477 -14 -41 -63 -70 -119 -70 -27 0 -38 -4 -38 -15
0 -13 30 -15 210 -15 170 0 210 3 210 14 0 9 -18 15 -56 19 -65 7 -101 33
-109 81 -3 17 -4 204 -3 416 l3 384 309 -374 c170 -206 344 -417 385 -467 42
-51 84 -93 93 -93 16 0 17 39 20 553 2 437 6 557 16 575 16 29 69 52 117 52
24 0 35 4 35 15 0 13 -30 15 -210 15 -180 0 -210 -2 -210 -15 0 -11 12 -15 44
-15 55 0 107 -33 118 -77 5 -17 7 -199 6 -404 l-3 -373 -364 442 -363 442
-159 0 c-152 0 -158 -1 -156 -20z"/>
<path d="M16970 9316 c0 -12 10 -16 38 -16 56 0 105 -29 119 -70 9 -25 12
-165 12 -495 0 -330 -3 -470 -12 -495 -14 -41 -63 -70 -119 -70 -28 0 -38 -4
-38 -16 0 -14 36 -15 353 -12 329 4 357 6 427 27 161 48 274 137 343 269 l37
70 0 230 c0 255 -1 260 -71 363 -70 104 -157 163 -297 201 -70 20 -110 22
-434 26 -322 3 -358 2 -358 -12z m675 -73 c202 -68 315 -251 315 -507 0 -229
-86 -395 -248 -479 -109 -57 -199 -67 -364 -40 l-38 6 0 509 c0 427 2 509 14
514 69 27 239 25 321 -3z"/>
<path d="M16610 7196 c-312 -48 -551 -172 -761 -393 -212 -224 -323 -490 -333
-803 -15 -433 167 -783 531 -1021 151 -98 308 -161 488 -195 152 -29 518 -26
712 4 165 26 346 74 488 129 l100 39 5 319 c5 352 6 355 70 409 33 27 73 40
158 51 49 7 52 8 52 36 l0 29 -580 0 -580 0 0 -29 c0 -28 0 -28 79 -34 62 -4
91 -11 132 -34 97 -52 94 -37 97 -413 l3 -329 -63 -19 c-118 -37 -183 -46
-308 -46 -146 0 -240 22 -353 81 -221 116 -335 332 -383 724 -22 177 -15 474
15 636 85 457 290 692 642 735 148 18 323 -13 459 -82 126 -64 260 -182 337
-295 45 -67 124 -220 142 -277 11 -34 16 -38 47 -38 l34 0 0 415 0 415 -32 0
c-30 0 -36 -6 -62 -55 -16 -31 -42 -65 -57 -76 -54 -38 -81 -35 -279 31 -102
34 -219 69 -260 77 -108 20 -434 25 -540 9z"/>
<path d="M4574 7176 c-230 -43 -421 -140 -594 -302 -194 -184 -311 -405 -356
-673 -20 -126 -15 -362 11 -484 77 -365 306 -669 622 -826 349 -173 876 -175
1218 -4 230 116 440 340 546 584 80 184 110 347 104 564 -8 325 -110 575 -324
798 -170 177 -335 270 -581 329 -71 17 -127 21 -330 23 -171 3 -266 0 -316 -9z
m430 -113 c244 -56 408 -287 460 -648 23 -159 27 -227 27 -445 0 -471 -83
-763 -268 -946 -113 -111 -306 -159 -476 -120 -172 40 -280 137 -373 332 -95
198 -130 408 -128 769 2 407 67 676 209 863 130 171 335 244 549 195z"/>
<path d="M7387 7174 c-408 -73 -765 -383 -896 -779 -49 -148 -65 -274 -58
-454 14 -346 123 -608 350 -836 178 -179 372 -277 647 -325 153 -26 438 -22
575 9 252 56 425 151 592 324 204 211 315 454 344 750 36 381 -71 709 -316
966 -179 188 -376 294 -634 340 -132 25 -480 27 -604 5z m424 -108 c254 -54
418 -280 473 -649 25 -169 27 -203 27 -437 -1 -480 -80 -768 -262 -949 -170
-170 -469 -187 -675 -39 -97 69 -200 248 -249 428 -91 341 -80 898 25 1209
112 332 365 499 661 437z"/>
<path d="M914 7132 l1 -29 85 -7 c109 -8 177 -38 211 -92 l24 -39 0 -980 0
-980 -23 -37 c-33 -52 -105 -85 -209 -93 -80 -7 -81 -7 -85 -36 l-5 -29 609 0
608 0 0 29 c0 28 0 28 -77 35 -102 8 -145 21 -184 53 -63 53 -63 55 -67 526
l-4 427 79 0 78 0 380 -533 380 -532 378 -3 377 -2 0 33 c0 33 -2 34 -54 46
-78 17 -133 57 -203 147 -61 77 -633 872 -633 879 0 2 30 13 68 25 244 80 392
232 438 450 29 137 3 308 -65 425 -72 125 -207 232 -352 278 -177 57 -219 60
-1020 64 l-736 5 1 -30z m1266 -122 c228 -50 340 -215 340 -500 0 -159 -39
-276 -122 -366 -80 -87 -192 -120 -440 -131 l-158 -6 0 513 0 513 163 -6 c89
-2 187 -10 217 -17z"/>
<path d="M9190 7131 l0 -28 92 -6 c139 -9 207 -52 228 -143 15 -61 13 -1903
-2 -1945 -31 -93 -92 -129 -230 -137 l-88 -5 0 -28 0 -29 620 0 620 0 0 30 c0
30 -1 30 -54 30 -132 0 -224 40 -256 113 -22 50 -23 75 -21 581 l1 369 89 -6
c107 -7 205 -38 286 -92 100 -67 160 -186 189 -372 12 -78 12 -78 44 -81 l32
-3 0 591 0 591 -32 -3 c-31 -3 -32 -5 -44 -73 -31 -180 -121 -316 -249 -376
-61 -28 -174 -49 -268 -49 l-52 0 2 468 c2 257 3 475 3 485 0 15 15 17 173 17
342 0 498 -28 623 -108 126 -82 176 -176 220 -409 4 -19 11 -23 39 -23 l35 0
0 335 0 335 -1000 0 -1000 0 0 -29z"/>
<path d="M11400 7131 l0 -28 91 -6 c137 -9 205 -49 229 -136 14 -53 14 -1898
0 -1951 -24 -89 -90 -128 -232 -137 l-88 -6 0 -28 0 -29 620 0 620 0 0 29 0
28 -89 6 c-48 3 -103 12 -122 20 -49 20 -97 72 -109 117 -7 26 -10 352 -8 998
l3 958 27 41 c38 58 96 83 207 90 l91 6 0 28 0 29 -620 0 -620 0 0 -29z"/>
<path d="M12800 7131 c0 -27 3 -29 48 -36 114 -16 172 -53 260 -168 l42 -54 0
-859 c0 -928 -2 -955 -53 -1033 -36 -54 -109 -89 -211 -103 -85 -11 -86 -11
-86 -39 l0 -29 420 0 420 0 0 29 c0 28 -1 28 -74 34 -128 9 -230 76 -266 174
-12 31 -15 185 -18 848 -2 710 -1 808 12 795 15 -16 374 -452 1131 -1379 422
-515 452 -550 482 -550 l32 -1 3 1063 3 1062 25 59 c39 93 80 117 258 152 17
3 22 11 22 34 l0 30 -390 0 -390 0 0 -30 c0 -28 3 -30 38 -30 84 0 178 -38
228 -92 68 -74 74 -127 74 -767 l0 -533 -155 193 c-86 107 -348 434 -583 726
l-427 533 -422 0 -423 0 0 -29z"/>
<path d="M3975 3537 c-173 -44 -306 -178 -363 -361 -24 -79 -21 -235 6 -322
40 -129 125 -232 237 -287 77 -38 146 -50 249 -45 101 6 167 27 240 77 56 39
151 160 137 174 -7 7 -33 -14 -76 -61 -80 -87 -141 -119 -241 -128 -94 -9
-191 19 -262 76 -98 77 -153 247 -137 425 23 254 129 391 317 411 155 16 277
-67 340 -231 23 -61 47 -74 42 -22 -5 60 -18 292 -16 300 1 4 -7 7 -18 7 -11
0 -20 -7 -20 -15 0 -8 -11 -22 -25 -31 -24 -15 -29 -15 -98 11 -86 33 -230 43
-312 22z"/>
<path d="M5487 3535 c-184 -50 -328 -212 -358 -400 -59 -379 222 -673 578
-606 123 24 269 134 326 246 85 169 80 402 -11 545 -64 100 -163 177 -271 210
-73 23 -190 25 -264 5z m213 -51 c165 -49 254 -285 218 -582 -22 -188 -126
-310 -281 -328 -156 -18 -281 90 -328 286 -17 74 -18 290 0 360 54 218 205
319 391 264z"/>
<path d="M10020 3540 c-94 -23 -206 -94 -269 -173 -95 -119 -132 -292 -97
-459 33 -153 123 -271 260 -339 71 -35 93 -41 171 -46 161 -10 268 29 378 138
109 109 159 242 151 405 -9 180 -89 324 -234 416 -93 59 -248 84 -360 58z
m236 -70 c140 -68 210 -276 183 -545 -16 -163 -75 -268 -182 -322 -144 -73
-306 -17 -381 130 -94 187 -83 502 23 649 34 48 81 83 138 104 52 20 162 11
219 -16z"/>
<path d="M13234 3513 c-125 -303 -372 -866 -392 -892 -14 -19 -42 -41 -64 -49
-21 -8 -38 -19 -38 -24 0 -4 70 -8 155 -8 85 0 155 4 155 9 0 5 -20 14 -45 20
-44 11 -65 33 -65 67 0 9 21 65 46 125 l46 109 193 0 193 0 40 -102 c61 -156
59 -181 -14 -200 -24 -7 -44 -16 -44 -20 0 -4 90 -8 200 -8 110 0 200 3 200 8
0 4 -22 15 -50 25 -40 14 -55 26 -76 62 -22 39 -137 307 -332 777 -63 153 -80
169 -108 101z m80 -399 c42 -99 76 -184 76 -187 0 -4 -74 -7 -165 -7 -91 0
-165 3 -165 7 0 19 165 382 171 376 3 -5 40 -89 83 -189z"/>
<path d="M925 3520 c3 -5 17 -10 31 -10 46 0 91 -26 102 -59 15 -42 16 -768 2
-822 -12 -44 -48 -69 -100 -69 -16 0 -30 -4 -30 -10 0 -6 77 -10 210 -10 133
0 210 4 210 10 0 6 -12 10 -27 10 -47 0 -97 31 -104 65 -12 53 -10 777 2 818
8 30 18 42 44 53 19 8 46 14 60 14 14 0 25 5 25 10 0 6 -79 10 -216 10 -141 0
-213 -3 -209 -10z"/>
<path d="M1900 3515 c0 -8 9 -15 21 -15 39 0 118 -42 145 -78 l27 -35 -1 -381
c-2 -323 -5 -383 -18 -403 -17 -27 -52 -43 -95 -43 -16 0 -29 -4 -29 -10 0 -6
65 -10 175 -10 166 0 230 11 128 23 -56 6 -79 30 -88 90 -3 23 -5 179 -3 347
l3 304 290 -349 c160 -193 306 -369 324 -392 19 -24 40 -43 47 -43 10 0 14 94
16 463 2 342 6 468 15 483 14 24 61 44 105 44 17 0 27 4 23 10 -4 6 -73 10
-176 10 -106 0 -169 -4 -169 -10 0 -5 11 -10 24 -10 43 0 87 -22 97 -48 9 -23
16 -649 7 -657 -2 -2 -139 160 -303 360 l-300 365 -132 0 c-112 0 -133 -2
-133 -15z"/>
<path d="M6720 3521 c0 -6 11 -11 25 -11 46 0 94 -27 102 -57 4 -15 8 -209 8
-430 l0 -403 -26 -26 c-16 -16 -41 -28 -67 -31 -23 -3 -42 -10 -42 -14 0 -5
95 -9 210 -9 133 0 210 4 210 10 0 6 -15 10 -32 10 -48 0 -94 32 -102 70 -3
18 -6 108 -6 201 l0 169 49 0 c59 0 41 19 241 -258 l145 -201 138 0 c75 -1
137 3 137 7 0 5 -27 16 -60 26 -43 11 -74 28 -104 56 -48 44 -311 400 -296
400 30 0 129 48 163 79 105 95 103 253 -5 345 -74 64 -101 69 -410 74 -197 3
-278 1 -278 -7z m498 -65 c63 -33 102 -102 102 -181 0 -133 -86 -210 -246
-222 l-74 -6 0 206 c0 206 0 207 23 211 12 3 31 7 42 10 32 8 125 -3 153 -18z"/>
<path d="M8240 3520 c0 -5 13 -10 29 -10 42 0 90 -20 102 -42 7 -13 10 -162
10 -436 l-1 -417 -24 -23 c-15 -16 -39 -26 -70 -29 -25 -3 -46 -10 -46 -14 0
-5 97 -9 215 -9 118 0 215 4 215 9 0 4 -21 11 -46 14 -29 3 -54 13 -68 26 -20
20 -21 33 -24 218 -3 186 -2 195 15 188 10 -4 61 -10 114 -12 134 -8 194 11
263 80 59 59 76 104 76 193 0 133 -89 231 -238 263 -68 14 -522 15 -522 1z
m488 -68 c57 -29 94 -96 100 -182 11 -160 -87 -258 -236 -234 l-57 9 -3 212
-2 212 27 4 c50 9 134 -1 171 -21z"/>
<path d="M11230 3521 c0 -6 11 -11 25 -11 46 0 94 -27 102 -57 4 -15 8 -209 8
-431 l0 -404 -33 -29 c-22 -20 -43 -29 -67 -29 -19 0 -35 -4 -35 -10 0 -6 77
-10 210 -10 133 0 210 4 210 10 0 6 -14 10 -30 10 -46 0 -86 25 -99 61 -6 19
-11 104 -11 205 l0 174 53 0 52 -1 145 -200 c80 -109 154 -213 165 -229 l20
-30 133 0 c75 0 132 4 132 9 0 5 -25 17 -56 26 -36 10 -70 30 -99 56 -47 43
-310 399 -295 399 30 0 129 48 163 79 52 47 77 102 77 171 0 71 -26 126 -80
173 -77 66 -102 70 -412 75 -195 2 -278 0 -278 -7z m498 -65 c131 -68 140
-277 15 -357 -49 -31 -120 -49 -188 -49 l-45 0 0 204 0 204 38 11 c46 13 143
6 180 -13z"/>
<path d="M14235 3518 c-2 -7 -5 -57 -7 -111 -2 -81 -1 -97 12 -95 8 2 17 17
20 33 10 47 36 90 67 111 22 14 52 19 136 22 l108 4 -3 -428 c-2 -316 -6 -435
-15 -450 -13 -23 -61 -44 -99 -44 -13 0 -24 -4 -24 -10 0 -6 77 -10 210 -10
116 0 210 4 210 9 0 4 -21 11 -46 14 -29 3 -54 13 -68 26 -21 21 -21 27 -24
456 l-3 435 83 0 c145 0 206 -33 229 -124 7 -29 17 -46 26 -46 13 0 14 13 10
78 -4 42 -6 92 -7 110 l0 32 -405 0 c-316 0 -407 -3 -410 -12z"/>
<path d="M15660 3521 c0 -4 21 -11 46 -14 29 -3 54 -13 68 -26 21 -21 21 -28
24 -436 2 -291 -1 -421 -8 -436 -13 -24 -67 -49 -105 -49 -14 0 -25 -4 -25
-10 0 -6 135 -10 384 -10 l383 0 42 118 c22 66 41 122 41 125 0 4 -7 7 -15 7
-8 0 -23 -17 -34 -37 -27 -53 -87 -120 -125 -140 -24 -13 -67 -18 -186 -21
-216 -6 -202 -21 -202 223 1 105 1 196 1 203 1 9 34 12 134 12 106 0 139 -4
167 -18 38 -19 60 -52 60 -94 0 -34 25 -38 34 -5 3 12 6 86 6 165 0 129 -2
143 -17 140 -10 -2 -20 -20 -27 -47 -19 -77 -42 -86 -214 -86 -134 0 -147 2
-146 18 1 9 2 98 3 197 l1 180 158 0 c86 0 173 -5 193 -10 47 -13 74 -44 92
-105 9 -33 20 -51 32 -54 16 -3 17 3 12 59 -4 35 -7 85 -7 111 l0 49 -385 0
c-212 0 -385 -4 -385 -9z"/>
<path d="M17104 3521 c4 -6 18 -11 32 -11 45 0 93 -27 101 -57 4 -15 8 -209 8
-430 l0 -403 -26 -26 c-16 -16 -41 -28 -67 -31 -23 -3 -42 -10 -42 -15 0 -6
111 -8 303 -5 318 5 332 6 440 57 61 29 150 109 184 167 84 145 92 349 18 511
-30 66 -116 157 -177 188 -102 52 -142 57 -472 61 -222 4 -306 2 -302 -6z
m586 -70 c172 -65 271 -268 241 -492 -32 -238 -200 -384 -420 -365 -42 3 -86
9 -98 12 l-23 6 0 424 0 423 38 6 c20 4 42 8 47 11 25 10 165 -6 215 -25z"/>
<path d="M959 1624 c-9 -11 -10 -20 -2 -32 9 -16 597 -17 8628 -17 8031 0
8619 1 8628 17 8 12 7 21 -2 32 -12 15 -780 16 -8626 16 -7846 0 -8614 -1
-8626 -16z"/>
</g>
</svg>
